<svg xmlns="http://www.w3.org/2000/svg" width="80" height="80" viewBox="0 0 80 80">
  <g fill="none" fill-rule="evenodd" transform="translate(6.222)">
    <path fill="#BFE9D6" d="M2.99296765,5.86292415 C14.9488177,13.5497724 26.2784248,12.219548 33.8055972,3.70888556 C41.2619376,12.200009 52.6432719,13.5169985 64.5625879,5.86218321 L64.5625879,52.5836256 C64.4981354,52.7929716 64.3840207,53.121631 64.2112378,53.5558479 C63.8334657,54.5052185 63.3224692,55.5699741 62.6595117,56.7217687 C60.7496462,60.0398889 58.0059372,63.3683322 54.2745239,66.4845298 C49.0299867,70.8643755 42.2649562,74.4527949 33.777895,76.9668571 C25.2953248,74.4525153 18.5325457,70.8650056 13.2884417,66.4868669 C9.55516505,63.3700707 6.80963283,60.0409784 4.89806554,56.7222061 C4.23451441,55.5701802 3.72298327,54.5052084 3.34474517,53.5556421 C3.17179471,53.1214502 3.05753348,52.7927755 2.99296765,52.583365 L2.99296765,5.86292415 Z M35.2014822,54.076955 C37.3462651,52.3503174 39.4908596,50.4720265 41.4885942,48.5102452 C44.5450673,45.5087796 46.9699841,42.5908739 48.5228715,39.8873366 C49.7508945,37.74938 50.3887482,35.8161521 50.3887482,34.1444898 C50.3887482,29.4300325 47.390174,25.9374438 43.475738,25.3889368 C39.4153211,24.8199743 35.7514296,27.5795 34.3540395,33.3063859 C34.0367939,34.6065449 32.1790413,34.6069479 31.8612262,33.3069266 C30.461091,27.579679 26.7951821,24.8199449 22.7337505,25.3889415 C18.818646,25.9374379 15.8199719,29.429906 15.8199719,34.1444898 C15.8199719,35.8160718 16.4580293,37.7492493 17.6864569,39.8871717 C19.2398789,42.5907057 21.665639,45.5086179 24.7231749,48.5100904 C26.7216064,50.4718783 28.8669492,52.3501756 31.0124809,54.0768194 C31.7633282,54.6810733 32.4600329,55.2227941 33.0843556,55.6936704 C33.7544363,55.2229247 34.4508973,54.6812064 35.2014822,54.076955 Z"/>
    <path fill="#00A95C" fill-rule="nonzero" d="M32.797577,0.918074236 C33.3127194,0.259304563 34.3140916,0.261754076 34.825974,0.923036012 C41.7743675,9.89940874 52.9834249,11.1857453 65.0898516,2.40539964 C65.9375422,1.7906008 67.1279887,2.39320931 67.1279887,3.43711235 L67.1279887,52.7626273 C67.1279887,52.8723779 67.1137682,52.9816703 67.085679,53.0878008 C66.8150418,54.1103566 66.1340155,55.821829 64.8855417,57.9908749 C62.8293039,61.5632964 59.8929878,65.1253948 55.923554,68.4403695 C50.3302115,73.1115113 43.1310736,76.9062931 34.1377331,79.523172 C33.9026095,79.5915882 33.652718,79.5915663 33.4176065,79.5231091 C24.429074,76.9059255 17.232451,73.1121605 11.639709,68.4429547 C7.66848278,65.1275019 4.73037206,61.5648988 2.67241744,57.9919757 C1.42290819,55.8226371 0.741094333,54.1109442 0.470003056,53.0882782 C0.441830196,52.9819988 0.427566807,52.8725432 0.427566807,52.7626273 L0.427566807,3.43711235 C0.427566807,2.39322389 1.61798396,1.79061168 2.46567817,2.40538092 C14.6185065,11.2189188 25.7583089,9.9199665 32.797577,0.918074236 Z M2.99296765,5.86292415 L2.99296765,52.583365 C3.05753348,52.7927755 3.17179471,53.1214502 3.34474517,53.5556421 C3.72298327,54.5052084 4.23451441,55.5701802 4.89806554,56.7222061 C6.80963283,60.0409784 9.55516505,63.3700707 13.2884417,66.4868669 C18.5325457,70.8650056 25.2953248,74.4525153 33.777895,76.9668571 C42.2649562,74.4527949 49.0299867,70.8643755 54.2745239,66.4845298 C58.0059372,63.3683322 60.7496462,60.0398889 62.6595117,56.7217687 C63.3224692,55.5699741 63.8334657,54.5052185 64.2112378,53.5558479 C64.3840207,53.121631 64.4981354,52.7929716 64.5625879,52.5836256 L64.5625879,5.86218321 C52.6432719,13.5169985 41.2619376,12.200009 33.8055972,3.70888556 C26.2784248,12.219548 14.9488177,13.5497724 2.99296765,5.86292415 Z"/>
    <path fill="#00A95C" fill-rule="nonzero" d="M43.833404,22.8606812 C49.0231663,23.5878922 52.9541491,28.1665035 52.9541491,34.1444898 C52.9541491,36.3204433 52.1814113,38.6624822 50.7500437,41.1544565 C49.0629694,44.0916097 46.4990038,47.176833 43.2904212,50.3276706 C41.2273067,52.3536553 39.0209914,54.2860027 36.8148645,56.0620247 C36.042631,56.6837042 35.3250462,57.2418529 34.6801347,57.7284257 C34.4535493,57.89938 34.2519399,58.0493812 34.0775632,58.1774184 C33.9715359,58.2552695 33.8972772,58.3091161 33.8570453,58.3379447 C33.4094361,58.6586833 32.8059207,58.6587325 32.3582589,58.3380669 C32.3180143,58.3092392 32.2437313,58.2553935 32.1376687,58.1775434 C31.9632332,58.0495073 31.7615556,57.8995071 31.5348933,57.728554 C30.8897622,57.2419835 30.1719326,56.6838372 29.3994354,56.0621603 C27.1925541,54.2861445 24.985484,52.3538036 22.9216633,50.3278255 C19.7119792,47.1769947 17.1471333,44.091778 15.4594742,41.1546215 C14.0275925,38.6626129 13.254571,36.3205235 13.254571,34.1444898 C13.254571,28.1663299 17.1857128,23.5878441 22.3761511,22.8606765 C26.8014942,22.2406969 30.843887,24.5544088 33.1067959,29.198115 C35.3675793,24.554492 39.4086295,22.2406634 43.833404,22.8606812 Z M35.2014822,54.076955 C37.3462651,52.3503174 39.4908596,50.4720265 41.4885942,48.5102452 C44.5450673,45.5087796 46.9699841,42.5908739 48.5228715,39.8873366 C49.7508945,37.74938 50.3887482,35.8161521 50.3887482,34.1444898 C50.3887482,29.4300325 47.390174,25.9374438 43.475738,25.3889368 C39.4153211,24.8199743 35.7514296,27.5795 34.3540395,33.3063859 C34.0367939,34.6065449 32.1790413,34.6069479 31.8612262,33.3069266 C30.461091,27.579679 26.7951821,24.8199449 22.7337505,25.3889415 C18.818646,25.9374379 15.8199719,29.429906 15.8199719,34.1444898 C15.8199719,35.8160718 16.4580293,37.7492493 17.6864569,39.8871717 C19.2398789,42.5907057 21.665639,45.5086179 24.7231749,48.5100904 C26.7216064,50.4718783 28.8669492,52.3501756 31.0124809,54.0768194 C31.7633282,54.6810733 32.4600329,55.2227941 33.0843556,55.6936704 C33.7544363,55.2229247 34.4508973,54.6812064 35.2014822,54.076955 Z"/>
  </g>
</svg>
