<svg xmlns="http://www.w3.org/2000/svg" xmlns:xlink="http://www.w3.org/1999/xlink" width="80" height="80" viewBox="0 0 80 80">
  <defs>
    <path id="icon-a" d="M28.9329127,57.216331 C44.6518264,57.216331 57.3945236,44.4736337 57.3945236,28.7547201 C57.3945236,13.0358065 44.6518264,0.293109244 28.9329127,0.293109244 C13.2139991,0.293109244 0.471301875,13.0358065 0.471301875,28.7547201 C0.471301875,44.4736337 13.2139991,57.216331 28.9329127,57.216331 Z"/>
  </defs>
  <g fill="none" fill-rule="evenodd">
    <rect width="80" height="80" fill="none"/>
    <path fill="#00BD70" fill-rule="nonzero" d="M54.3814442,50.3000813 L76.2806452,72.1992824 C77.3585421,73.2771792 77.3585421,75.0245557 76.2806452,76.1024526 C75.2027484,77.1803495 73.4553719,77.1803495 72.377475,76.1024526 L50.4786153,54.2035929 L48.6137183,56.0684899 L70.512578,77.9673496 C72.620429,80.0752006 76.0376912,80.0752006 78.1455422,77.9673496 C80.2533933,75.8594986 80.2533933,72.4422364 78.1455422,70.3343854 L56.2463412,48.4351843 L54.3814442,50.3000813 Z"/>
    <path fill="#00BD70" fill-rule="nonzero" d="M31.5702754,62.4910562 C14.3947866,62.4910562 0.471301875,48.5675715 0.471301875,31.3920827 C0.471301875,14.2165939 14.3947866,0.293109244 31.5702754,0.293109244 C48.7457642,0.293109244 62.6692489,14.2165939 62.6692489,31.3920827 C62.6692489,48.5675715 48.7457642,62.4910562 31.5702754,62.4910562 Z M31.5702754,59.8536936 C47.289189,59.8536936 60.0318862,47.1109964 60.0318862,31.3920827 C60.0318862,15.6731691 47.289189,2.93047188 31.5702754,2.93047188 C15.8513617,2.93047188 3.10866451,15.6731691 3.10866451,31.3920827 C3.10866451,47.1109964 15.8513617,59.8536936 31.5702754,59.8536936 Z"/>
    <g transform="translate(2.637 2.637)">
      <mask id="icon-b" fill="#fff">
        <use xlink:href="#icon-a"/>
      </mask>
      <use fill="#BFE9D6" xlink:href="#icon-a"/>
      <g mask="url(#icon-b)">
        <g transform="translate(9.389 10.74)">
          <path fill="#FFF" stroke="#00BD70" stroke-width="2.637" d="M14.5582418,23.729998 L14.5582418,29.0987404 L4.06013187,33.1872704 C1.62567033,34.0998887 0,36.5720231 0,39.2861074 L0,42.6818964 L38.821978,42.6818964 L38.821978,39.2861074 C38.821978,36.5720231 37.1251341,34.0998887 34.6906725,33.1872704 L24.2637363,29.0987404 L24.2637363,23.3148628"/>
          <ellipse cx="19.341" cy="40.44" fill="#FFF" rx="17.582" ry="7.033"/>
          <path fill="#FFF" stroke="#00BD70" stroke-width="2.637" d="M29.3186813,12.73473 C29.3186813,19.5059372 24.7522462,24.9951854 19.120633,24.9951854 C13.488211,24.9951854 8.92339341,19.5059372 8.92339341,12.73473 C8.92339341,5.96433315 13.488211,0.474274646 19.120633,0.474274646 C24.7522462,0.474274646 29.3186813,5.96433315 29.3186813,12.73473 L29.3186813,12.73473 Z"/>
          <path stroke="#00BD70" stroke-width="2.637" d="M29.2803446,11.6493596 C28.9366084,11.690687 28.6430171,11.6461183 28.2992809,11.7133766 C24.8255226,12.3835283 22.5940677,11.1226382 20.6820853,7.76944818 C19.5352193,9.97276465 15.9482303,11.7133766 13.0026127,11.7133766 C11.5524501,11.7133766 10.3036765,11.4159815 9.05409407,10.7604158"/>
        </g>
      </g>
    </g>
  </g>
</svg>
