<svg xmlns="http://www.w3.org/2000/svg" width="80" height="80" viewBox="0 0 80 80">
  <g fill="none" fill-rule="evenodd" transform="translate(17)">
    <path fill="#00BD70" fill-rule="nonzero" d="M37.1520341,0.461233729 C41.4583712,0.461233729 45.1954651,4.20009827 45.1954651,8.58177702 L45.1954651,71.4599179 C45.1954651,75.8264985 41.4774436,79.442558 37.1520341,79.442558 L8.63850132,79.442558 C4.34634705,79.442558 0.846904998,75.8578488 0.846904998,71.4599179 L0.846904998,8.58177702 C0.846904998,4.16720925 4.36370953,0.461233729 8.63850132,0.461233729 L37.1520341,0.461233729 Z M3.41294273,12.1373326 L3.41294273,67.0154735 L42.6294273,67.0154735 L42.6294273,12.1373326 L3.41294273,12.1373326 Z"/>
    <path fill="#BFE9D6" d="M42.6294273,12.4444444 L3.55555556,12.4444444 L3.55555556,67.3225854 L42.6294273,67.3225854 L42.6294273,71.4599179 C42.6294273,74.3815541 40.0791299,76.8619128 37.1520341,76.8619128 L8.63850132,76.8619128 C5.77420472,76.8619128 3.41294273,74.4431165 3.41294273,71.4599179 L3.41294273,8.58177702 C3.41294273,5.56619004 5.80840078,3.04187889 8.63850132,3.04187889 L37.1520341,3.04187889 C40.0441677,3.04187889 42.6294273,5.62836347 42.6294273,8.58177702 L42.6294273,12.4444444 Z"/>
    <polygon fill="#00BD70" fill-rule="nonzero" points="2.13 14.194 43.602 14.194 43.602 11.613 2.13 11.613"/>
    <polygon fill="#00BD70" fill-rule="nonzero" points="2.13 67.527 43.602 67.527 43.602 64.946 2.13 64.946"/>
    <path fill="#00BD70" fill-rule="nonzero" d="M15.409165,48.1777047 C17.5303624,50.0347289 20.7283463,51.3823656 23.1374491,51.3823656 C27.1656618,51.3823656 30.4954767,48.4546342 30.4954767,44.7504516 C30.4954767,41.4022371 27.9607476,39.4824034 23.4974086,38.1703603 C19.8713424,37.0273085 18.3454591,35.8743822 18.3454591,34.0672688 C18.3454591,31.871103 20.4552529,30.016 23.1374491,30.016 C24.9172265,30.016 26.5077578,30.8449393 27.3405712,32.1252282 C27.728491,32.7215797 28.5236642,32.8887568 29.1166401,32.4986286 C29.709616,32.1085005 29.8758468,31.3088007 29.4879269,30.7124492 C28.1714866,28.6886778 25.7666671,27.4353548 23.1374491,27.4353548 C19.1090031,27.4353548 15.7794214,30.362995 15.7794214,34.0672688 C15.7794214,37.4091039 18.1248804,39.1812849 22.7537769,40.640139 C26.2534067,41.6691407 27.929439,42.9385874 27.929439,44.7504516 C27.929439,46.9465009 25.8194306,48.8017204 23.1374491,48.8017204 C21.3862031,48.8017204 18.7715779,47.6999123 17.0939797,46.2312415 C16.5595212,45.7633443 15.7490984,45.8197693 15.2838496,46.3572703 C14.8186009,46.8947712 14.8747065,47.7098075 15.409165,48.1777047 Z"/>
    <path fill="#00BD70" fill-rule="nonzero" d="M21.8113208 25.8064516L21.8113208 28.7253333C21.8113208 29.4379588 22.3857479 30.0156559 23.0943396 30.0156559 23.8029314 30.0156559 24.3773585 29.4379588 24.3773585 28.7253333L24.3773585 25.8064516C24.3773585 25.0938261 23.8029314 24.516129 23.0943396 24.516129 22.3857479 24.516129 21.8113208 25.0938261 21.8113208 25.8064516zM21.8113208 50.0916989L21.8113208 53.0109247C21.8113208 53.7235502 22.3857479 54.3012473 23.0943396 54.3012473 23.8029314 54.3012473 24.3773585 53.7235502 24.3773585 53.0109247L24.3773585 50.0916989C24.3773585 49.3790734 23.8029314 48.8013763 23.0943396 48.8013763 22.3857479 48.8013763 21.8113208 49.3790734 21.8113208 50.0916989z"/>
  </g>
</svg>
