<svg xmlns="http://www.w3.org/2000/svg" width="80" height="80" viewBox="0 0 80 80">
  <g fill="none" fill-rule="evenodd" transform="translate(0 7)">
    <rect width="40" height="29.231" x="36.667" y="25.055" fill="#BFE9D6" rx="14.616"/>
    <g stroke="#00BD70" stroke-linecap="round" stroke-linejoin="round" stroke-width="2.532">
      <path fill="#BFE9D6" d="M40.3268966,50.1535939 C42.8529261,53.8896894 46.8962759,56.6893159 51.4588768,56.6893159 L56.8344039,56.6893159 L65.7776552,65.4937308 L65.7776552,55.9208594 C72.7293793,55.6634265 79.2962759,48.9436243 79.2962759,40.6851627 C79.2962759,32.2646267 73.1255567,25.6265603 65.4619901,25.6265603"/>
      <path fill="#FFF" d="M0.510896552,22.2027375 C0.510896552,10.325894 8.79905419,0.801575097 19.6079212,0.801575097 L39.4160788,0.801575097 C50.2249458,0.801575097 58.987665,9.88263438 58.987665,21.7598272 C58.987665,23.4196235 58.8165069,25.0248315 58.4925259,26.5582896 C56.4983636,35.9970035 48.7143111,42.7173807 39.4160788,42.7173807 L33.1765517,42.7173807 L17.1148768,58.6607559 L17.1148768,43.2650805 C6.68764532,41.47807 0.510896552,32.7875263 0.510896552,22.2027375 Z"/>
      <path d="M15.8333333 21.7147331L43.6402299 21.7147331M15.8333333 14.1980947L43.6402299 14.1980947M15.8333333 28.3961895L29.7367816 28.3961895"/>
    </g>
  </g>
</svg>
